<svg width="1081" height="640" viewBox="0 0 1081 640" fill="none" xmlns="http://www.w3.org/2000/svg">
<rect width="1081" height="640" fill="url(#paint0_linear_18504_16568)"/>
<circle cx="369.5" cy="320" r="60" fill="url(#paint1_linear_18504_16568)"/>
<path d="M532.305 368.5L525.298 345.495H490.064L483.056 368.5H460.977L495.088 271.457H520.142L554.385 368.5H532.305ZM520.406 328.308L513.399 305.832C512.958 304.333 512.363 302.416 511.614 300.081C510.909 297.701 510.182 295.299 509.433 292.875C508.727 290.407 508.155 288.27 507.714 286.463C507.273 288.27 506.656 290.517 505.863 293.206C505.114 295.85 504.387 298.362 503.681 300.742C502.976 303.121 502.469 304.818 502.161 305.832L495.22 328.308H520.406ZM566.614 368.5V271.853H587.107V368.5H566.614ZM687.257 271.853L654.403 368.5H632.059L599.27 271.853H619.961L638.141 329.365C638.449 330.335 638.956 332.164 639.661 334.852C640.366 337.496 641.071 340.317 641.776 343.314C642.526 346.266 643.032 348.712 643.297 350.651C643.561 348.712 644.024 346.266 644.685 343.314C645.39 340.361 646.073 337.563 646.734 334.918C647.439 332.23 647.946 330.379 648.255 329.365L666.566 271.853H687.257ZM729.565 311.649L749.727 271.853H771.806L739.745 330.886V368.5H719.384V331.547L687.323 271.853H709.535L729.565 311.649Z" fill="white"/>
<defs>
<linearGradient id="paint0_linear_18504_16568" x1="0" y1="320" x2="1081" y2="320" gradientUnits="userSpaceOnUse">
<stop stop-color="#60DACA"/>
<stop offset="1" stop-color="#64ACD5"/>
</linearGradient>
<linearGradient id="paint1_linear_18504_16568" x1="429.5" y1="320" x2="309.5" y2="320" gradientUnits="userSpaceOnUse">
<stop stop-color="#E7F3F8"/>
<stop offset="1" stop-color="#E7F8F7"/>
</linearGradient>
</defs>
</svg>
